<svg id="visual" viewBox="0 0 900 600" width="900" height="600" xmlns="http://www.w3.org/2000/svg" xmlns:xlink="http://www.w3.org/1999/xlink" version="1.1"><path d="M0 43L13.7 41C27.3 39 54.7 35 82 35C109.3 35 136.7 39 163.8 38C191 37 218 31 245.2 30C272.3 29 299.7 33 327 39C354.3 45 381.7 53 409 58C436.3 63 463.7 65 491 60C518.3 55 545.7 43 573 38C600.3 33 627.7 35 654.8 35C682 35 709 33 736.2 32C763.3 31 790.7 31 818 34C845.3 37 872.7 43 886.3 46L900 49L900 0L886.3 0C872.7 0 845.3 0 818 0C790.7 0 763.3 0 736.2 0C709 0 682 0 654.8 0C627.7 0 600.3 0 573 0C545.7 0 518.3 0 491 0C463.7 0 436.3 0 409 0C381.7 0 354.3 0 327 0C299.7 0 272.3 0 245.2 0C218 0 191 0 163.8 0C136.7 0 109.3 0 82 0C54.7 0 27.3 0 13.7 0L0 0Z" fill="#727596"></path><path d="M0 91L13.7 97C27.3 103 54.7 115 82 115C109.3 115 136.7 103 163.8 95C191 87 218 83 245.2 81C272.3 79 299.7 79 327 86C354.3 93 381.7 107 409 113C436.3 119 463.7 117 491 120C518.3 123 545.7 131 573 131C600.3 131 627.7 123 654.8 114C682 105 709 95 736.2 103C763.3 111 790.7 137 818 147C845.3 157 872.7 151 886.3 148L900 145L900 47L886.3 44C872.7 41 845.3 35 818 32C790.7 29 763.3 29 736.2 30C709 31 682 33 654.8 33C627.7 33 600.3 31 573 36C545.7 41 518.3 53 491 58C463.7 63 436.3 61 409 56C381.7 51 354.3 43 327 37C299.7 31 272.3 27 245.2 28C218 29 191 35 163.8 36C136.7 37 109.3 33 82 33C54.7 33 27.3 37 13.7 39L0 41Z" fill="#64688b"></path><path d="M0 181L13.7 183C27.3 185 54.7 189 82 190C109.3 191 136.7 189 163.8 179C191 169 218 151 245.2 148C272.3 145 299.7 157 327 167C354.3 177 381.7 185 409 183C436.3 181 463.7 169 491 172C518.3 175 545.7 193 573 197C600.3 201 627.7 191 654.8 178C682 165 709 149 736.2 155C763.3 161 790.7 189 818 200C845.3 211 872.7 205 886.3 202L900 199L900 143L886.3 146C872.7 149 845.3 155 818 145C790.7 135 763.3 109 736.2 101C709 93 682 103 654.8 112C627.7 121 600.3 129 573 129C545.7 129 518.3 121 491 118C463.7 115 436.3 117 409 111C381.7 105 354.3 91 327 84C299.7 77 272.3 77 245.2 79C218 81 191 85 163.8 93C136.7 101 109.3 113 82 113C54.7 113 27.3 101 13.7 95L0 89Z" fill="#575b7f"></path><path d="M0 211L13.7 216C27.3 221 54.7 231 82 233C109.3 235 136.7 229 163.8 221C191 213 218 203 245.2 204C272.3 205 299.7 217 327 221C354.3 225 381.7 221 409 220C436.3 219 463.7 221 491 224C518.3 227 545.7 231 573 234C600.3 237 627.7 239 654.8 228C682 217 709 193 736.2 202C763.3 211 790.7 253 818 266C845.3 279 872.7 263 886.3 255L900 247L900 197L886.3 200C872.7 203 845.3 209 818 198C790.7 187 763.3 159 736.2 153C709 147 682 163 654.8 176C627.7 189 600.3 199 573 195C545.7 191 518.3 173 491 170C463.7 167 436.3 179 409 181C381.7 183 354.3 175 327 165C299.7 155 272.3 143 245.2 146C218 149 191 167 163.8 177C136.7 187 109.3 189 82 188C54.7 187 27.3 183 13.7 181L0 179Z" fill="#4a4e74"></path><path d="M0 379L13.7 390C27.3 401 54.7 423 82 430C109.3 437 136.7 429 163.8 428C191 427 218 433 245.2 426C272.3 419 299.7 399 327 382C354.3 365 381.7 351 409 347C436.3 343 463.7 349 491 368C518.3 387 545.7 419 573 435C600.3 451 627.7 451 654.8 438C682 425 709 399 736.2 384C763.3 369 790.7 365 818 362C845.3 359 872.7 357 886.3 356L900 355L900 245L886.3 253C872.7 261 845.3 277 818 264C790.7 251 763.3 209 736.2 200C709 191 682 215 654.8 226C627.7 237 600.3 235 573 232C545.7 229 518.3 225 491 222C463.7 219 436.3 217 409 218C381.7 219 354.3 223 327 219C299.7 215 272.3 203 245.2 202C218 201 191 211 163.8 219C136.7 227 109.3 233 82 231C54.7 229 27.3 219 13.7 214L0 209Z" fill="#444769"></path><path d="M0 463L13.7 472C27.3 481 54.7 499 82 505C109.3 511 136.7 505 163.8 500C191 495 218 491 245.2 479C272.3 467 299.7 447 327 431C354.3 415 381.7 403 409 399C436.3 395 463.7 399 491 415C518.3 431 545.7 459 573 480C600.3 501 627.7 515 654.8 507C682 499 709 469 736.2 452C763.3 435 790.7 431 818 423C845.3 415 872.7 403 886.3 397L900 391L900 353L886.3 354C872.7 355 845.3 357 818 360C790.7 363 763.3 367 736.2 382C709 397 682 423 654.8 436C627.7 449 600.3 449 573 433C545.7 417 518.3 385 491 366C463.7 347 436.3 341 409 345C381.7 349 354.3 363 327 380C299.7 397 272.3 417 245.2 424C218 431 191 425 163.8 426C136.7 427 109.3 435 82 428C54.7 421 27.3 399 13.7 388L0 377Z" fill="#3d405f"></path><path d="M0 601L13.7 601C27.3 601 54.7 601 82 601C109.3 601 136.7 601 163.8 601C191 601 218 601 245.2 601C272.3 601 299.7 601 327 601C354.3 601 381.7 601 409 601C436.3 601 463.7 601 491 601C518.3 601 545.7 601 573 601C600.3 601 627.7 601 654.8 601C682 601 709 601 736.2 601C763.3 601 790.7 601 818 601C845.3 601 872.7 601 886.3 601L900 601L900 389L886.3 395C872.7 401 845.3 413 818 421C790.7 429 763.3 433 736.2 450C709 467 682 497 654.8 505C627.7 513 600.3 499 573 478C545.7 457 518.3 429 491 413C463.7 397 436.3 393 409 397C381.7 401 354.3 413 327 429C299.7 445 272.3 465 245.2 477C218 489 191 493 163.8 498C136.7 503 109.3 509 82 503C54.7 497 27.3 479 13.7 470L0 461Z" fill="#373955"></path></svg>